# xmcd
#
# Track frame offsets:
#	150
#	15727
#	30485
#	45580
#	59867
#	73965
#	83157
#	102522
#	116040
#	135320
#	149415
#	164972
#	181860
#
# Disc length: 2595 seconds
# Revision: 0
# Processed by: cddbd v1.5.2PL0 Copyright (c) Steve Scherf et al.
# Submitted via: dBpowerAMP V12.0
#
DISCID=c10a210d
DTITLE=Mitch Harrell - Shoes To Big To Fill
DYEAR=2000
DGENRE=Bluegrass
TTITLE0=Put My Walkin' Shoes On
TTITLE1=Momma Lovess The Dogwood
TTITLE2=Tennessee Blues
TTITLE3=I Want To Be A Redneck
TTITLE4=In The Coal Mines
TTITLE5=Eatin' Out Of Your Hand
TTITLE6=Shoes To Big Too Fill
TTITLE7=1500 Miles Away From Home
TTITLE8=Don't Sell Daddy Any More Whisky
TTITLE9=Give Me One More Rock
TTITLE10=Trains Make Me Lonesome
TTITLE11=I'm Not Whorty
TTITLE12=I've Got You
EXTD=
EXTT0=
EXTT1=
EXTT2=
EXTT3=
EXTT4=
EXTT5=
EXTT6=
EXTT7=
EXTT8=
EXTT9=
EXTT10=
EXTT11=
EXTT12=
PLAYORDER=
